<?xml version="1.0" encoding="UTF-8" standalone="no"?>
<!-- Generator: Gravit.io -->

<svg
   xmlns:dc="http://purl.org/dc/elements/1.1/"
   xmlns:cc="http://creativecommons.org/ns#"
   xmlns:rdf="http://www.w3.org/1999/02/22-rdf-syntax-ns#"
   xmlns:svg="http://www.w3.org/2000/svg"
   xmlns="http://www.w3.org/2000/svg"
   xmlns:sodipodi="http://sodipodi.sourceforge.net/DTD/sodipodi-0.dtd"
   xmlns:inkscape="http://www.inkscape.org/namespaces/inkscape"
   style="isolation:isolate"
   viewBox="0 0 181.21182 30.618663"
   width="181.21182"
   height="30.618664"
   version="1.1"
   id="svg832"
   sodipodi:docname="logo.svg"
   inkscape:version="0.92.4 (5da689c313, 2019-01-14)">
  <metadata
     id="metadata836">
    <rdf:RDF>
      <cc:Work
         rdf:about="">
        <dc:format>image/svg+xml</dc:format>
        <dc:type
           rdf:resource="http://purl.org/dc/dcmitype/StillImage" />
        <dc:title></dc:title>
      </cc:Work>
    </rdf:RDF>
  </metadata>
  <sodipodi:namedview
     pagecolor="#ffffff"
     bordercolor="#666666"
     borderopacity="1"
     objecttolerance="10"
     gridtolerance="10"
     guidetolerance="10"
     inkscape:pageopacity="0"
     inkscape:pageshadow="2"
     inkscape:window-width="1366"
     inkscape:window-height="715"
     id="namedview834"
     showgrid="false"
     fit-margin-top="0"
     fit-margin-left="0"
     fit-margin-right="0"
     fit-margin-bottom="0"
     inkscape:zoom="4.1018519"
     inkscape:cx="74.660043"
     inkscape:cy="25.730115"
     inkscape:window-x="-8"
     inkscape:window-y="22"
     inkscape:window-maximized="1"
     inkscape:current-layer="svg832" />
  <defs
     id="defs818">
    <clipPath
       id="_clipPath_Oym1fQWp4902RANcb93UAmaY2a1Es4ds">
      <rect
         width="108"
         height="35"
         id="rect815"
         x="0"
         y="0" />
    </clipPath>
    <style
       id="style4541"
       type="text/css">
   <![CDATA[
    .fil0 {fill:none}
    .fil3 {fill:#2D95C9}
    .fil1 {fill:#75B547}
    .fil2 {fill:#E18939}
   ]]>
  </style>
  </defs>
  <g
     style="clip-rule:evenodd;fill-rule:evenodd;image-rendering:optimizeQuality;shape-rendering:geometricPrecision;text-rendering:geometricPrecision"
     id="g4573"
     transform="matrix(0.00187005,0,0,0.00187005,-14.816182,-8.4403027)">
    <g
       id="Layer_x0020_1">
  <metadata
   id="CorelCorpID_0Corel-Layer" />

  <g
   id="_1943640855648">
   <rect
   id="rect4546"
   height="16373.18"
   width="21830.91"
   y="4513.4102"
   x="7922.8799"
   class="fil0"
   style="fill:none" />

   <g
   id="g4554">
    <path
   id="path4548"
   d="m 13848.5,19239.46 h 2134.27 c 150.31,0 302.53,-122.96 338.3,-273.26 l 867.07,-3643.41 h 2904.42 c 150.3,0 302.52,-122.97 338.29,-273.27 l 912.09,-3832.56 c 35.77,-150.3 -57.95,-273.26 -208.24,-273.26 h -2134.27 c -150.29,0 -302.53,122.97 -338.3,273.26 l -867.07,3643.41 h -2904.42 c -150.28,0 -302.53,122.98 -338.29,273.27 l -912.09,3832.56 c -35.76,150.28 57.93,273.26 208.24,273.26 z"
   class="fil1"
   inkscape:connector-curvature="0"
   style="fill:#75b547" />

    <path
   id="path4550"
   d="m 21348.28,14456.3 h 2134.28 c 150.31,0 302.53,-122.97 338.29,-273.26 l 912.09,-3832.56 c 35.77,-150.31 -57.94,-273.26 -208.23,-273.26 h -2907.48 l 619.79,-2604.32 c 2232.96,290.4 3886.78,1252.7 4192.42,2404.38 516.58,1946.57 -534.32,3108.13 -2259.57,4535.96 2251.98,-1493.36 3606.66,-3049.88 2956.71,-5042.86 -406.49,-1246.42 -2284.82,-2232.78 -4713.06,-2433.64 252.06,-391.48 787.94,-700.55 1347.04,-776.2 H 20141.8 c -150.28,0 -302.53,122.98 -338.3,273.26 l -145.21,610.2 c -658.5,103.23 -1330.17,263.83 -2001.75,490.1 -1256.89,423.49 -2380.93,904.4 -3348.71,1496.26 910.21,-396.19 1805.93,-738.91 2730.65,-1039.71 854.45,-277.94 1703.87,-452.48 2522.98,-539.79 l -670.04,2815.5 c -35.77,150.29 57.93,273.26 208.23,273.26 h 2907.47 l -867.07,3643.42 c -35.76,150.26 57.93,273.26 208.23,273.26 z"
   class="fil2"
   inkscape:connector-curvature="0"
   style="fill:#e18939" />

    <path
   id="path4552"
   d="m 15908.49,6160.55 h -2134.28 c -150.31,0 -302.53,122.97 -338.3,273.26 l -912.08,3832.56 c -35.77,150.31 57.94,273.26 208.23,273.26 h 512.44 c -1880.07,1397.15 -3070.72,2864.81 -2825.69,4608.38 164.9,1173.38 1543.07,2057.16 3567.87,2362.57 l 153.64,-645.62 c -1639.15,-402.47 -2686.79,-1245.66 -2769.72,-2273.15 -135.38,-1677.41 749.94,-2818.17 2148.65,-4052.18 h 2120.28 l -706.28,2967.8 c -189.17,470.92 -797.93,862.4 -1437.04,948.88 h 3618.77 c 150.27,0 302.52,-122.98 338.29,-273.27 l 912.08,-3832.55 c 35.77,-150.29 -57.92,-273.27 -208.23,-273.27 h -2907.47 l 377.7,-1587.07 c -439.73,168.35 -877.94,348 -1319.52,540.21 424.63,-259.69 879.37,-498.03 1362.19,-719.52 l 446.7,-1877.03 c 35.76,-150.26 -57.92,-273.26 -208.23,-273.26 z m 741.45,11423.72 c 1105.69,-88.52 2297.64,-318.02 3524.06,-716 2060.77,-668.75 3914.98,-1641.89 5359.37,-2734.81 -1337.33,877.41 -2911.64,1649.66 -4610.01,2214.68 -1484.19,493.76 -2898.1,730.69 -4161.75,766.92 z"
   class="fil3"
   inkscape:connector-curvature="0"
   style="fill:#2d95c9" />

   </g>

  </g>

 </g>
  </g>
  <text
     xml:space="preserve"
     style="font-style:normal;font-variant:normal;font-weight:normal;font-stretch:normal;font-size:40px;line-height:1.25;font-family:Arial;-inkscape-font-specification:Arial;letter-spacing:0px;word-spacing:0px;fill:#ffffff;fill-opacity:1;stroke:none"
     x="36.956608"
     y="11.406616"
     id="text4582"><tspan
       sodipodi:role="line"
       x="36.956608"
       y="11.406616"
       id="tspan4584"
       style="font-style:italic;font-variant:normal;font-weight:bold;font-stretch:normal;font-size:10.66666698px;font-family:Arial;-inkscape-font-specification:'Arial Bold Italic';fill:#ffffff">BADAN PUSAT STATISTIK</tspan></text>
  <text
     xml:space="preserve"
     style="font-style:normal;font-variant:normal;font-weight:normal;font-stretch:normal;font-size:40px;line-height:1.25;font-family:Arial;-inkscape-font-specification:Arial;letter-spacing:0px;word-spacing:0px;fill:#ffffff;fill-opacity:1;stroke:none"
     x="36.961815"
     y="23.955359"
     id="text4590"><tspan
       sodipodi:role="line"
       id="tspan4588"
       x="36.961815"
       y="23.955359"
       style="font-style:italic;font-variant:normal;font-weight:bold;font-stretch:normal;font-size:10.66666698px;font-family:Arial;-inkscape-font-specification:'Arial Bold Italic';fill:#ffffff">NAMA KOTA/KABUPATEN</tspan></text>
</svg>
